HIERARCHY
ROOT Hips
{
	OFFSET	0.000000	0.000000	0.000000
	CHANNELS 6 Xposition Yposition Zposition Zrotation Xrotation Yrotation
	JOINT LeftHip
	{
		OFFSET	4.740440	-3.195970	-0.322709
		CHANNELS 3 Zrotation Xrotation Yrotation
		JOINT LeftKnee
		{
			OFFSET	-1.605680	-15.592300	1.005510
			CHANNELS 3 Zrotation Xrotation Yrotation
			JOINT LeftAnkle
			{
				OFFSET	-0.632401	-16.421000	-1.413730
				CHANNELS 3 Zrotation Xrotation Yrotation
				End Site
				{
					OFFSET	0.008423	-3.933000	-2.776750
				}
			}
		}
	}
	JOINT RightHip
	{
		OFFSET	-4.740440	-3.195970	-0.322709
		CHANNELS 3 Zrotation Xrotation Yrotation
		JOINT RightKnee
		{
			OFFSET	1.605680	-15.592300	1.005510
			CHANNELS 3 Zrotation Xrotation Yrotation
			JOINT RightAnkle
			{
				OFFSET	0.632401	-16.421000	-1.413730
				CHANNELS 3 Zrotation Xrotation Yrotation
				End Site
				{
					OFFSET	-0.008423	-3.933000	-2.776750
				}
			}
		}
	}
	JOINT Chest
	{
		OFFSET	0.000000	3.468200	0.078401
		CHANNELS 3 Zrotation Xrotation Yrotation
		JOINT LeftCollar
		{
			OFFSET	3.857650	15.070700	-0.011583
			CHANNELS 3 Zrotation Xrotation Yrotation
			JOINT LeftShoulder
			{
				OFFSET	3.979720	-1.940530	-0.165223
				CHANNELS 3 Zrotation Xrotation Yrotation
				JOINT LeftElbow
				{
					OFFSET	0.615844	-10.986600	-0.673886
					CHANNELS 3 Zrotation Xrotation Yrotation
					JOINT LeftWrist
					{
						OFFSET	0.826843	-10.854500	1.034220
						CHANNELS 3 Zrotation Xrotation Yrotation
						End Site
						{
							OFFSET	-1.679080	-8.456540	0.936217
						}
					}
				}
			}
		}
		JOINT RightCollar
		{
			OFFSET	-3.857650	15.070700	-0.011583
			CHANNELS 3 Zrotation Xrotation Yrotation
			JOINT RightShoulder
			{
				OFFSET	-3.979720	-1.940530	-0.165223
				CHANNELS 3 Zrotation Xrotation Yrotation
				JOINT RightElbow
				{
					OFFSET	-0.615845	-10.986600	-0.673886
					CHANNELS 3 Zrotation Xrotation Yrotation
					JOINT RightWrist
					{
						OFFSET	-0.826843	-10.854500	1.034220
						CHANNELS 3 Zrotation Xrotation Yrotation
						End Site
						{
							OFFSET	1.679080	-8.456540	0.936217
						}
					}
				}
			}
		}
		JOINT Neck
		{
			OFFSET	0.000000	15.101400	0.055730
			CHANNELS 3 Zrotation Xrotation Yrotation
			JOINT Head
			{
				OFFSET	0.000000	4.185120	1.488260
				CHANNELS 3 Zrotation Xrotation Yrotation
				End Site
				{
					OFFSET	0.000000	7.773420	-0.106016
				}
			}
		}
	}
}
MOTION
Frames:     17
Frame Time: 0.016667
5.263728	38.612698	-33.763542	2.786099	-10.684959	-13.387037	-4.431252	8.950149	5.819733	-6.341456	1.602935	13.611810	6.740424	-3.948949	0.027700	-16.176207	-7.624969	-2.064582	6.012399	25.725149	-9.954946	5.664308	-6.792420	15.613647	-5.291289	8.696352	2.375869	-4.750304	3.989441	2.368864	6.838070	-6.796136	-3.158765	-6.519792	-5.793792	-13.744607	13.982514	4.411923	-27.751181	-1.394866	-0.040982	5.577267	-2.672859	-2.025210	-3.658503	-3.765855	-6.328673	13.148319	-12.145435	-5.389736	9.694333	-3.385320	13.226140	-5.349894	6.988299	7.916237	-15.987210	
5.263728	38.612698	-33.763542	2.786099	-10.684959	-13.387037	-4.431252	8.950149	5.819733	-6.341456	1.602935	13.611810	6.740424	-3.948949	0.027700	-16.176207	-7.624969	-2.064582	6.012399	25.725149	-9.954946	5.664308	-6.792420	15.613647	-5.266459	8.673196	2.379592	-4.773487	4.014132	2.363411	6.866200	-6.809415	-3.155784	-6.560940	-5.797747	-13.772527	13.978022	4.406287	-27.738558	-1.403316	-0.031423	5.577359	-2.665781	-1.998802	-3.657582	-3.762177	-6.330046	13.147027	-12.171831	-5.392593	9.690475	-3.408155	13.216766	-5.351566	6.988650	7.949487	-15.998417	
5.263728	38.612698	-33.763542	2.786099	-10.684959	-13.387037	-4.431252	8.950149	5.819733	-6.341456	1.602935	13.611810	6.740424	-3.948949	0.027700	-16.176207	-7.624969	-2.064582	6.012399	25.725149	-9.954946	5.664308	-6.792420	15.613647	-5.258418	8.665704	2.380777	-4.780997	4.022120	2.361665	6.895008	-6.823379	-3.152671	-6.602162	-5.800304	-13.801253	13.971241	4.400475	-27.740360	-1.405799	-0.028578	5.577522	-2.664385	-1.990291	-3.657623	-3.761031	-6.330418	13.146666	-12.180354	-5.385549	9.694448	-3.416138	13.206153	-5.359806	6.987117	7.968685	-15.994244	
5.263728	38.612698	-33.763542	2.786099	-10.684959	-13.387037	-4.431252	8.950149	5.819733	-6.341456	1.602935	13.611810	6.740424	-3.948949	0.027700	-16.176207	-7.624969	-2.064582	6.012399	25.725149	-9.954946	5.664308	-6.792420	15.613647	-5.231992	8.641077	2.384695	-4.788565	4.036550	2.337614	6.908887	-6.823150	-3.133934	-6.643693	-5.803125	-13.829847	13.964570	4.395769	-27.745935	-1.415406	-0.017809	5.577399	-2.667374	-1.968134	-3.660180	-3.754491	-6.329400	13.147064	-12.204329	-5.365006	9.691123	-3.442246	13.181087	-5.392133	6.998586	8.024614	-16.000874	
5.263728	38.612698	-33.763542	2.786099	-10.684959	-13.387037	-4.431252	8.950149	5.819733	-6.341456	1.602935	13.611810	6.740424	-3.948949	0.027700	-16.176207	-7.624969	-2.064582	6.012399	25.725149	-9.954946	5.664308	-6.792420	15.613647	-5.223021	8.632716	2.386029	-4.788291	4.039466	2.326469	6.928741	-6.831758	-3.133879	-6.676338	-5.797390	-13.831945	13.953586	4.366663	-27.738659	-1.419006	-0.013816	5.577198	-2.671866	-1.962789	-3.662195	-3.753766	-6.329116	13.147236	-12.206493	-5.359041	9.690625	-3.451019	13.174934	-5.402853	7.003948	8.041384	-16.005274	
5.263728	38.612698	-33.763542	2.786099	-10.684959	-13.387037	-4.431252	8.950149	5.819733	-6.341456	1.602935	13.611810	6.740424	-3.948949	0.027700	-16.176207	-7.624969	-2.064582	6.012399	25.725149	-9.954946	5.664308	-6.792420	15.613647	-5.180727	8.609444	2.353994	-4.807970	4.046157	2.329657	6.918959	-6.832470	-3.131710	-6.704329	-5.803452	-13.855508	13.950162	4.363737	-27.705044	-1.445129	-0.003816	5.610291	-2.685297	-1.946792	-3.668240	-3.753766	-6.329116	13.147236	-12.206693	-5.352738	9.696646	-3.499899	13.181212	-5.403859	7.006914	8.062778	-15.988886	
5.263728	38.612698	-33.763542	2.786099	-10.684959	-13.387037	-4.431252	8.950149	5.819733	-6.341456	1.602935	13.611810	6.740424	-3.948949	0.027700	-16.176207	-7.624969	-2.064582	6.012399	25.725149	-9.954946	5.664308	-6.792420	15.613647	-5.165625	8.601573	2.341436	-4.816878	4.049236	2.333775	6.911833	-6.831023	-3.151840	-6.713103	-5.817571	-13.847140	13.945154	4.351907	-27.708092	-1.454909	-0.000291	5.623017	-2.689695	-1.941558	-3.670215	-3.753766	-6.329116	13.147236	-12.205265	-5.352083	9.704918	-3.517492	13.187688	-5.402683	7.005854	8.065378	-15.979012	
5.263728	38.612698	-33.763542	2.786099	-10.684959	-13.387037	-4.431252	8.950149	5.819733	-6.341456	1.602935	13.611810	6.740424	-3.948949	0.027700	-16.176207	-7.624969	-2.064582	6.012399	25.725149	-9.954946	5.664308	-6.792420	15.613647	-5.114979	8.576002	2.297385	-4.849248	4.060143	2.351907	6.893259	-6.817314	-3.161078	-6.721573	-5.833200	-13.824094	13.946257	4.353524	-27.728851	-1.489830	0.012615	5.666708	-2.700435	-1.930840	-3.675726	-3.756172	-6.324641	13.147320	-12.200089	-5.349725	9.734718	-3.576456	13.209996	-5.385145	7.003543	8.071063	-15.957480	
5.263728	38.612698	-33.763542	2.786099	-10.684959	-13.387037	-4.431252	8.950149	5.819733	-6.341456	1.602935	13.611810	6.740424	-3.948949	0.027700	-16.176207	-7.624969	-2.064582	6.012399	25.725149	-9.954946	5.664308	-6.792420	15.613647	-5.097556	8.567140	2.282355	-4.860433	4.063999	2.358100	6.886543	-6.813214	-3.168942	-6.726068	-5.841395	-13.812204	13.944148	4.347970	-27.744453	-1.502321	0.017574	5.681414	-2.701883	-1.931615	-3.677182	-3.759052	-6.319281	13.147408	-12.196333	-5.348032	9.756300	-3.596371	13.218744	-5.371782	7.003543	8.071063	-15.957480	
5.263728	38.612698	-33.763542	2.786099	-10.684959	-13.387037	-4.431252	8.950149	5.819733	-6.341456	1.602935	13.611810	6.740424	-3.948949	0.027700	-16.176207	-7.624969	-2.064582	6.012399	25.725149	-9.954946	5.664308	-6.792420	15.613647	-5.042452	8.537889	2.237621	-4.896423	4.078172	2.375901	6.871052	-6.804872	-3.149843	-6.749498	-5.858009	-13.818143	13.947088	4.351069	-27.771282	-1.542376	0.035044	5.724905	-2.705547	-1.935494	-3.681511	-3.766957	-6.305676	13.147670	-12.193057	-5.342047	9.779422	-3.658707	13.247745	-5.332287	7.003543	8.071063	-15.957480	
5.263728	38.612698	-33.763542	2.786099	-10.684959	-13.387037	-4.431252	8.950149	5.819733	-6.341456	1.602935	13.611810	6.740424	-3.948949	0.027700	-16.176207	-7.624969	-2.064582	6.012399	25.725149	-9.954946	5.664308	-6.792420	15.613647	-5.023509	8.527402	2.223235	-4.909542	4.084118	2.381956	6.868025	-6.810390	-3.143122	-6.758809	-5.855227	-13.819795	13.946078	4.347666	-27.783148	-1.556098	0.041447	5.738910	-2.706532	-1.937446	-3.682966	-3.768598	-6.303950	13.147685	-12.191737	-5.336010	9.792158	-3.680053	13.250130	-5.318593	7.003222	8.078912	-15.959528	
5.263728	38.612698	-33.763542	2.786099	-10.684959	-13.387037	-4.431252	8.950149	5.819733	-6.341456	1.602935	13.611810	6.740424	-3.948949	0.027700	-16.176207	-7.624969	-2.064582	6.012399	25.725149	-9.954946	5.664308	-6.792420	15.613647	-4.968627	8.494389	2.187685	-4.945872	4.103619	2.392365	6.853267	-6.801274	-3.125257	-6.773154	-5.863367	-13.823387	13.940749	4.331559	-27.807131	-1.595231	0.062239	5.773735	-2.708676	-1.945153	-3.687281	-3.773877	-6.298521	13.147740	-12.191583	-5.317873	9.810268	-3.740806	13.249796	-5.283675	7.002090	8.111631	-15.967944	
5.263728	38.612698	-33.763542	2.786099	-10.684959	-13.387037	-4.431252	8.950149	5.819733	-6.341456	1.602935	13.611810	6.740424	-3.948949	0.027700	-16.176207	-7.624969	-2.064582	6.012399	25.725149	-9.954946	5.664308	-6.792420	15.613647	-4.955244	8.482505	2.187945	-4.951574	4.111300	2.383781	6.847250	-6.795352	-3.118952	-6.778941	-5.870259	-13.825105	13.940796	4.328106	-27.808699	-1.606356	0.068525	5.777112	-2.706196	-1.946614	-3.691742	-3.775645	-6.296823	13.147759	-12.192362	-5.311667	9.812000	-3.754253	13.222963	-5.279874	7.000842	8.149981	-15.977822	
5.263728	38.612698	-33.763542	2.786099	-10.684959	-13.387037	-4.431252	8.950149	5.819733	-6.341456	1.602935	13.611810	6.740424	-3.948949	0.027700	-16.176207	-7.624969	-2.064582	6.012399	25.725149	-9.954946	5.664308	-6.792420	15.613647	-4.932868	8.429664	2.188139	-4.946548	4.147532	2.358126	6.825543	-6.773970	-3.096180	-6.786247	-5.889278	-13.837294	13.942833	4.350471	-27.802448	-1.622087	0.101741	5.793491	-2.698125	-1.948749	-3.707608	-3.780626	-6.292492	13.147792	-12.191039	-5.290750	9.838968	-3.775928	13.220815	-5.272377	6.999207	8.204512	-15.991805	
5.263728	38.612698	-33.763542	2.786099	-10.684959	-13.387037	-4.431252	8.950149	5.819733	-6.341456	1.602935	13.611810	6.740424	-3.948949	0.027700	-16.176207	-7.624969	-2.064582	6.012399	25.725149	-9.954946	5.664308	-6.792420	15.613647	-4.930132	8.408045	2.186593	-4.939170	4.162483	2.351084	6.817379	-6.765944	-3.087631	-6.779705	-5.892979	-13.846909	13.934907	4.354925	-27.792929	-1.618980	0.117870	5.798305	-2.699046	-1.950402	-3.709888	-3.782130	-6.291390	13.147789	-12.188077	-5.282455	9.862931	-3.779225	13.213677	-5.265898	6.998385	8.232528	-15.998994	
5.263728	38.612698	-33.763542	2.786099	-10.684959	-13.387037	-4.431252	8.950149	5.819733	-6.341456	1.602935	13.611810	6.740424	-3.948949	0.027700	-16.176207	-7.624969	-2.064582	6.012399	25.725149	-9.954946	5.664308	-6.792420	15.613647	-4.926185	8.346730	2.181215	-4.912925	4.203426	2.330862	6.794636	-6.750757	-3.060941	-6.765677	-5.898829	-13.873658	13.913664	4.371972	-27.767483	-1.603876	0.162840	5.812584	-2.703136	-1.956365	-3.715315	-3.786727	-6.288178	13.147821	-12.187217	-5.260178	9.888816	-3.785014	13.198635	-5.246711	6.991245	8.306108	-16.009920	
5.263728	38.612698	-33.763542	2.786099	-10.684959	-13.387037	-4.431252	8.950149	5.819733	-6.341456	1.602935	13.611810	6.740424	-3.948949	0.027700	-16.176207	-7.624969	-2.064582	6.012399	25.725149	-9.954946	5.664308	-6.792420	15.613647	-4.926333	8.307220	2.177068	-4.903469	4.236579	2.329539	6.794210	-6.776283	-3.049659	-6.771429	-5.874841	-13.881512	13.908597	4.381386	-27.760536	-1.596580	0.196659	5.820477	-2.704454	-1.958542	-3.717131	-3.788429	-6.286762	13.147822	-12.186549	-5.252662	9.899648	-3.785562	13.215173	-5.236759	6.991024	8.320041	-16.003510	
